<mxfile host="app.diagrams.net" agent="Mozilla/5.0 (Windows NT 10.0; Win64; x64) AppleWebKit/537.36 (KHTML, like Gecko) Chrome/127.0.0.0 Safari/537.36" version="24.7.6">
  <diagram name="Page-1" id="5e1hApsxt1_k2KYxcRRe">
    <mxGraphModel dx="1199" dy="425" grid="1" gridSize="10" guides="1" tooltips="1" connect="1" arrows="1" fold="1" page="1" pageScale="1" pageWidth="827" pageHeight="1169" math="0" shadow="0">
      <root>
        <mxCell id="0" />
        <mxCell id="1" parent="0" />
        <mxCell id="mFrYlg1bk1QKZE4jiOjr-52" value="&lt;i&gt;Person&lt;/i&gt;" style="swimlane;fontStyle=0;childLayout=stackLayout;horizontal=1;startSize=26;fillColor=none;horizontalStack=0;resizeParent=1;resizeParentMax=0;resizeLast=0;collapsible=1;marginBottom=0;whiteSpace=wrap;html=1;" parent="1" vertex="1">
          <mxGeometry x="110" y="210" width="140" height="140" as="geometry" />
        </mxCell>
        <mxCell id="mFrYlg1bk1QKZE4jiOjr-53" value="+ age : str" style="text;strokeColor=none;fillColor=none;align=left;verticalAlign=top;spacingLeft=4;spacingRight=4;overflow=hidden;rotatable=0;points=[[0,0.5],[1,0.5]];portConstraint=eastwest;whiteSpace=wrap;html=1;" parent="mFrYlg1bk1QKZE4jiOjr-52" vertex="1">
          <mxGeometry y="26" width="140" height="26" as="geometry" />
        </mxCell>
        <mxCell id="mFrYlg1bk1QKZE4jiOjr-54" value="+ last_name : str" style="text;strokeColor=none;fillColor=none;align=left;verticalAlign=top;spacingLeft=4;spacingRight=4;overflow=hidden;rotatable=0;points=[[0,0.5],[1,0.5]];portConstraint=eastwest;whiteSpace=wrap;html=1;" parent="mFrYlg1bk1QKZE4jiOjr-52" vertex="1">
          <mxGeometry y="52" width="140" height="26" as="geometry" />
        </mxCell>
        <mxCell id="mFrYlg1bk1QKZE4jiOjr-55" value="+ first_name : str" style="text;strokeColor=none;fillColor=none;align=left;verticalAlign=top;spacingLeft=4;spacingRight=4;overflow=hidden;rotatable=0;points=[[0,0.5],[1,0.5]];portConstraint=eastwest;whiteSpace=wrap;html=1;" parent="mFrYlg1bk1QKZE4jiOjr-52" vertex="1">
          <mxGeometry y="78" width="140" height="32" as="geometry" />
        </mxCell>
        <mxCell id="mFrYlg1bk1QKZE4jiOjr-56" value="+ adresse" style="text;strokeColor=none;fillColor=none;align=left;verticalAlign=top;spacingLeft=4;spacingRight=4;overflow=hidden;rotatable=0;points=[[0,0.5],[1,0.5]];portConstraint=eastwest;whiteSpace=wrap;html=1;" parent="mFrYlg1bk1QKZE4jiOjr-52" vertex="1">
          <mxGeometry y="110" width="140" height="30" as="geometry" />
        </mxCell>
        <mxCell id="mFrYlg1bk1QKZE4jiOjr-57" value="&lt;span style=&quot;text-align: left;&quot;&gt;Adress&lt;/span&gt;" style="swimlane;fontStyle=0;childLayout=stackLayout;horizontal=1;startSize=26;fillColor=none;horizontalStack=0;resizeParent=1;resizeParentMax=0;resizeLast=0;collapsible=1;marginBottom=0;whiteSpace=wrap;html=1;" parent="1" vertex="1">
          <mxGeometry x="390" y="210" width="140" height="104" as="geometry" />
        </mxCell>
        <mxCell id="mFrYlg1bk1QKZE4jiOjr-58" value="+ city : str" style="text;strokeColor=none;fillColor=none;align=left;verticalAlign=top;spacingLeft=4;spacingRight=4;overflow=hidden;rotatable=0;points=[[0,0.5],[1,0.5]];portConstraint=eastwest;whiteSpace=wrap;html=1;" parent="mFrYlg1bk1QKZE4jiOjr-57" vertex="1">
          <mxGeometry y="26" width="140" height="26" as="geometry" />
        </mxCell>
        <mxCell id="mFrYlg1bk1QKZE4jiOjr-59" value="+postal_code : int" style="text;strokeColor=none;fillColor=none;align=left;verticalAlign=top;spacingLeft=4;spacingRight=4;overflow=hidden;rotatable=0;points=[[0,0.5],[1,0.5]];portConstraint=eastwest;whiteSpace=wrap;html=1;" parent="mFrYlg1bk1QKZE4jiOjr-57" vertex="1">
          <mxGeometry y="52" width="140" height="26" as="geometry" />
        </mxCell>
        <mxCell id="mFrYlg1bk1QKZE4jiOjr-60" value="+street_name : str" style="text;strokeColor=none;fillColor=none;align=left;verticalAlign=top;spacingLeft=4;spacingRight=4;overflow=hidden;rotatable=0;points=[[0,0.5],[1,0.5]];portConstraint=eastwest;whiteSpace=wrap;html=1;" parent="mFrYlg1bk1QKZE4jiOjr-57" vertex="1">
          <mxGeometry y="78" width="140" height="26" as="geometry" />
        </mxCell>
        <mxCell id="mFrYlg1bk1QKZE4jiOjr-61" value="" style="endArrow=none;endFill=0;html=1;rounded=0;entryX=1;entryY=0.5;entryDx=0;entryDy=0;exitX=0;exitY=0.5;exitDx=0;exitDy=0;startArrow=open;startFill=0;" parent="1" source="mFrYlg1bk1QKZE4jiOjr-58" target="mFrYlg1bk1QKZE4jiOjr-53" edge="1">
          <mxGeometry width="160" relative="1" as="geometry">
            <mxPoint x="390" y="210" as="sourcePoint" />
            <mxPoint x="380" y="240" as="targetPoint" />
          </mxGeometry>
        </mxCell>
        <mxCell id="mFrYlg1bk1QKZE4jiOjr-63" value="n" style="edgeLabel;html=1;align=center;verticalAlign=middle;resizable=0;points=[];" parent="mFrYlg1bk1QKZE4jiOjr-61" vertex="1" connectable="0">
          <mxGeometry x="-0.7902" relative="1" as="geometry">
            <mxPoint x="-96" y="21" as="offset" />
          </mxGeometry>
        </mxCell>
        <mxCell id="mFrYlg1bk1QKZE4jiOjr-65" value="1" style="edgeLabel;html=1;align=center;verticalAlign=middle;resizable=0;points=[];" parent="mFrYlg1bk1QKZE4jiOjr-61" vertex="1" connectable="0">
          <mxGeometry x="0.8307" relative="1" as="geometry">
            <mxPoint x="-5" y="20" as="offset" />
          </mxGeometry>
        </mxCell>
        <mxCell id="mFrYlg1bk1QKZE4jiOjr-66" value=".." style="edgeLabel;html=1;align=center;verticalAlign=middle;resizable=0;points=[];" parent="mFrYlg1bk1QKZE4jiOjr-61" vertex="1" connectable="0">
          <mxGeometry x="-0.1235" y="1" relative="1" as="geometry">
            <mxPoint x="-59" y="19" as="offset" />
          </mxGeometry>
        </mxCell>
        <mxCell id="mFrYlg1bk1QKZE4jiOjr-67" value="1" style="edgeLabel;html=1;align=center;verticalAlign=middle;resizable=0;points=[];" parent="mFrYlg1bk1QKZE4jiOjr-61" vertex="1" connectable="0">
          <mxGeometry x="0.8438" y="2" relative="1" as="geometry">
            <mxPoint x="119" y="8" as="offset" />
          </mxGeometry>
        </mxCell>
        <mxCell id="0-rDXfHknbJrmzrThzKK-1" value="Lives" style="text;html=1;align=center;verticalAlign=middle;resizable=0;points=[];autosize=1;strokeColor=none;fillColor=none;" parent="1" vertex="1">
          <mxGeometry x="300" y="220" width="50" height="30" as="geometry" />
        </mxCell>
        <mxCell id="0-rDXfHknbJrmzrThzKK-2" value="Student" style="swimlane;fontStyle=0;childLayout=stackLayout;horizontal=1;startSize=26;fillColor=none;horizontalStack=0;resizeParent=1;resizeParentMax=0;resizeLast=0;collapsible=1;marginBottom=0;whiteSpace=wrap;html=1;" parent="1" vertex="1">
          <mxGeometry x="274" y="390" width="140" height="140" as="geometry">
            <mxRectangle x="270" y="230" width="80" height="30" as="alternateBounds" />
          </mxGeometry>
        </mxCell>
        <mxCell id="0-rDXfHknbJrmzrThzKK-3" value="+ id : int" style="text;strokeColor=none;fillColor=none;align=left;verticalAlign=top;spacingLeft=4;spacingRight=4;overflow=hidden;rotatable=0;points=[[0,0.5],[1,0.5]];portConstraint=eastwest;whiteSpace=wrap;html=1;" parent="0-rDXfHknbJrmzrThzKK-2" vertex="1">
          <mxGeometry y="26" width="140" height="26" as="geometry" />
        </mxCell>
        <mxCell id="10" value="" style="rounded=0;whiteSpace=wrap;html=1;" parent="0-rDXfHknbJrmzrThzKK-2" vertex="1">
          <mxGeometry y="52" width="140" height="8" as="geometry" />
        </mxCell>
        <mxCell id="7" value="+ get_course(name) : Course" style="text;strokeColor=none;fillColor=none;align=left;verticalAlign=top;spacingLeft=4;spacingRight=4;overflow=hidden;rotatable=0;points=[[0,0.5],[1,0.5]];portConstraint=eastwest;whiteSpace=wrap;html=1;" parent="0-rDXfHknbJrmzrThzKK-2" vertex="1">
          <mxGeometry y="60" width="140" height="40" as="geometry" />
        </mxCell>
        <mxCell id="16" value="+ get_note(Course) : Note" style="text;strokeColor=none;fillColor=none;align=left;verticalAlign=top;spacingLeft=4;spacingRight=4;overflow=hidden;rotatable=0;points=[[0,0.5],[1,0.5]];portConstraint=eastwest;whiteSpace=wrap;html=1;" parent="0-rDXfHknbJrmzrThzKK-2" vertex="1">
          <mxGeometry y="100" width="140" height="40" as="geometry" />
        </mxCell>
        <mxCell id="0-rDXfHknbJrmzrThzKK-6" value="" style="endArrow=block;endFill=0;html=1;rounded=0;entryX=0.727;entryY=1.107;entryDx=0;entryDy=0;entryPerimeter=0;exitX=0.5;exitY=0;exitDx=0;exitDy=0;" parent="1" source="0-rDXfHknbJrmzrThzKK-2" target="mFrYlg1bk1QKZE4jiOjr-56" edge="1">
          <mxGeometry width="160" relative="1" as="geometry">
            <mxPoint x="340" y="360" as="sourcePoint" />
            <mxPoint x="370" y="440" as="targetPoint" />
          </mxGeometry>
        </mxCell>
        <mxCell id="0-rDXfHknbJrmzrThzKK-7" value="Teacher" style="swimlane;fontStyle=0;childLayout=stackLayout;horizontal=1;startSize=26;fillColor=none;horizontalStack=0;resizeParent=1;resizeParentMax=0;resizeLast=0;collapsible=1;marginBottom=0;whiteSpace=wrap;html=1;" parent="1" vertex="1">
          <mxGeometry x="150" y="560" width="140" height="100" as="geometry" />
        </mxCell>
        <mxCell id="0-rDXfHknbJrmzrThzKK-13" value="+ entry_date: DateTime" style="text;strokeColor=none;fillColor=none;align=left;verticalAlign=top;spacingLeft=4;spacingRight=4;overflow=hidden;rotatable=0;points=[[0,0.5],[1,0.5]];portConstraint=eastwest;whiteSpace=wrap;html=1;" parent="0-rDXfHknbJrmzrThzKK-7" vertex="1">
          <mxGeometry y="26" width="140" height="26" as="geometry" />
        </mxCell>
        <mxCell id="13" value="" style="rounded=0;whiteSpace=wrap;html=1;" parent="0-rDXfHknbJrmzrThzKK-7" vertex="1">
          <mxGeometry y="52" width="140" height="8" as="geometry" />
        </mxCell>
        <mxCell id="37" value="+ get_course(name) : Course" style="text;strokeColor=none;fillColor=none;align=left;verticalAlign=top;spacingLeft=4;spacingRight=4;overflow=hidden;rotatable=0;points=[[0,0.5],[1,0.5]];portConstraint=eastwest;whiteSpace=wrap;html=1;" parent="0-rDXfHknbJrmzrThzKK-7" vertex="1">
          <mxGeometry y="60" width="140" height="40" as="geometry" />
        </mxCell>
        <mxCell id="0-rDXfHknbJrmzrThzKK-9" value="" style="endArrow=block;endFill=0;html=1;rounded=0;entryX=0.575;entryY=1.116;entryDx=0;entryDy=0;entryPerimeter=0;exitX=0.5;exitY=0;exitDx=0;exitDy=0;" parent="1" source="0-rDXfHknbJrmzrThzKK-7" target="mFrYlg1bk1QKZE4jiOjr-56" edge="1">
          <mxGeometry width="160" relative="1" as="geometry">
            <mxPoint x="217.5" y="439" as="sourcePoint" />
            <mxPoint x="312.5" y="340" as="targetPoint" />
          </mxGeometry>
        </mxCell>
        <mxCell id="0-rDXfHknbJrmzrThzKK-11" value="Director" style="swimlane;fontStyle=0;childLayout=stackLayout;horizontal=1;startSize=26;fillColor=none;horizontalStack=0;resizeParent=1;resizeParentMax=0;resizeLast=0;collapsible=1;marginBottom=0;whiteSpace=wrap;html=1;strokeColor=default;" parent="1" vertex="1">
          <mxGeometry x="-140" y="560" width="220" height="618" as="geometry" />
        </mxCell>
        <mxCell id="18" value="" style="rounded=0;whiteSpace=wrap;html=1;" parent="0-rDXfHknbJrmzrThzKK-11" vertex="1">
          <mxGeometry y="26" width="220" height="8" as="geometry" />
        </mxCell>
        <mxCell id="19" value="+ get_students() : List[Student]" style="text;strokeColor=none;fillColor=none;align=left;verticalAlign=top;spacingLeft=4;spacingRight=4;overflow=hidden;rotatable=0;points=[[0,0.5],[1,0.5]];portConstraint=eastwest;whiteSpace=wrap;html=1;" parent="0-rDXfHknbJrmzrThzKK-11" vertex="1">
          <mxGeometry y="34" width="220" height="40" as="geometry" />
        </mxCell>
        <mxCell id="20" value="+ get_teachers() : List[Teacher]" style="text;strokeColor=none;fillColor=none;align=left;verticalAlign=top;spacingLeft=4;spacingRight=4;overflow=hidden;rotatable=0;points=[[0,0.5],[1,0.5]];portConstraint=eastwest;whiteSpace=wrap;html=1;" parent="0-rDXfHknbJrmzrThzKK-11" vertex="1">
          <mxGeometry y="74" width="220" height="40" as="geometry" />
        </mxCell>
        <mxCell id="21" value="+ get_courses() : List[Courses]" style="text;strokeColor=none;fillColor=none;align=left;verticalAlign=top;spacingLeft=4;spacingRight=4;overflow=hidden;rotatable=0;points=[[0,0.5],[1,0.5]];portConstraint=eastwest;whiteSpace=wrap;html=1;" parent="0-rDXfHknbJrmzrThzKK-11" vertex="1">
          <mxGeometry y="114" width="220" height="40" as="geometry" />
        </mxCell>
        <mxCell id="22" value="+assign_course(teacher)" style="text;strokeColor=none;fillColor=none;align=left;verticalAlign=top;spacingLeft=4;spacingRight=4;overflow=hidden;rotatable=0;points=[[0,0.5],[1,0.5]];portConstraint=eastwest;whiteSpace=wrap;html=1;" parent="0-rDXfHknbJrmzrThzKK-11" vertex="1">
          <mxGeometry y="154" width="220" height="36" as="geometry" />
        </mxCell>
        <mxCell id="SjzigqZIlqn0Um6S3vSX-37" value="&lt;div style=&quot;color: rgb(8, 8, 8); background-color: rgb(255, 255, 255);&quot;&gt;&lt;pre style=&quot;font-family:&#39;JetBrains Mono&#39;,monospace;font-size:9,8pt;&quot;&gt;&lt;span style=&quot;color: rgb(0, 0, 0); font-family: Helvetica; white-space: normal; background-color: rgb(251, 251, 251);&quot;&gt;+modify_course(cours):&lt;/span&gt;&lt;br&gt;&lt;/pre&gt;&lt;pre style=&quot;font-family:&#39;JetBrains Mono&#39;,monospace;font-size:9,8pt;&quot;&gt;&lt;span style=&quot;color: rgb(0, 0, 0); font-family: Helvetica; white-space: normal; background-color: rgb(251, 251, 251);&quot;&gt;+list[courses]&lt;/span&gt;&lt;br&gt;&lt;/pre&gt;&lt;/div&gt;" style="text;strokeColor=none;fillColor=none;align=left;verticalAlign=top;spacingLeft=4;spacingRight=4;overflow=hidden;rotatable=0;points=[[0,0.5],[1,0.5]];portConstraint=eastwest;whiteSpace=wrap;html=1;" parent="0-rDXfHknbJrmzrThzKK-11" vertex="1">
          <mxGeometry y="190" width="220" height="80" as="geometry" />
        </mxCell>
        <mxCell id="SjzigqZIlqn0Um6S3vSX-38" value="&lt;div style=&quot;color: rgb(8, 8, 8);&quot;&gt;&lt;pre style=&quot;background-color: rgb(255, 255, 255); font-family: &amp;quot;JetBrains Mono&amp;quot;, monospace;&quot;&gt;extend_course_date(course):date&lt;/pre&gt;&lt;/div&gt;" style="text;strokeColor=none;fillColor=none;align=left;verticalAlign=top;spacingLeft=4;spacingRight=4;overflow=hidden;rotatable=0;points=[[0,0.5],[1,0.5]];portConstraint=eastwest;whiteSpace=wrap;html=1;" parent="0-rDXfHknbJrmzrThzKK-11" vertex="1">
          <mxGeometry y="270" width="220" height="60" as="geometry" />
        </mxCell>
        <mxCell id="weaDEV8ENetCzNVKxgwO-38" value="+add student(studeent):&lt;div&gt;List[student]&lt;/div&gt;" style="text;strokeColor=none;fillColor=none;align=left;verticalAlign=top;spacingLeft=4;spacingRight=4;overflow=hidden;rotatable=0;points=[[0,0.5],[1,0.5]];portConstraint=eastwest;whiteSpace=wrap;html=1;" vertex="1" parent="0-rDXfHknbJrmzrThzKK-11">
          <mxGeometry y="330" width="220" height="36" as="geometry" />
        </mxCell>
        <mxCell id="SjzigqZIlqn0Um6S3vSX-39" value="+remove student(student):&lt;div&gt;List[student]&lt;/div&gt;" style="text;strokeColor=none;fillColor=none;align=left;verticalAlign=top;spacingLeft=4;spacingRight=4;overflow=hidden;rotatable=0;points=[[0,0.5],[1,0.5]];portConstraint=eastwest;whiteSpace=wrap;html=1;" parent="0-rDXfHknbJrmzrThzKK-11" vertex="1">
          <mxGeometry y="366" width="220" height="36" as="geometry" />
        </mxCell>
        <mxCell id="weaDEV8ENetCzNVKxgwO-39" value="+add teacher(techer):&lt;div&gt;List[teacher]&lt;/div&gt;" style="text;strokeColor=none;fillColor=none;align=left;verticalAlign=top;spacingLeft=4;spacingRight=4;overflow=hidden;rotatable=0;points=[[0,0.5],[1,0.5]];portConstraint=eastwest;whiteSpace=wrap;html=1;" vertex="1" parent="0-rDXfHknbJrmzrThzKK-11">
          <mxGeometry y="402" width="220" height="36" as="geometry" />
        </mxCell>
        <mxCell id="weaDEV8ENetCzNVKxgwO-40" value="+remove teacher(techer):&lt;div&gt;List[teacher]&lt;/div&gt;" style="text;strokeColor=none;fillColor=none;align=left;verticalAlign=top;spacingLeft=4;spacingRight=4;overflow=hidden;rotatable=0;points=[[0,0.5],[1,0.5]];portConstraint=eastwest;whiteSpace=wrap;html=1;" vertex="1" parent="0-rDXfHknbJrmzrThzKK-11">
          <mxGeometry y="438" width="220" height="36" as="geometry" />
        </mxCell>
        <mxCell id="weaDEV8ENetCzNVKxgwO-41" value="+modifie_student_info(student):&lt;div&gt;List[student]&lt;/div&gt;" style="text;strokeColor=none;fillColor=none;align=left;verticalAlign=top;spacingLeft=4;spacingRight=4;overflow=hidden;rotatable=0;points=[[0,0.5],[1,0.5]];portConstraint=eastwest;whiteSpace=wrap;html=1;" vertex="1" parent="0-rDXfHknbJrmzrThzKK-11">
          <mxGeometry y="474" width="220" height="36" as="geometry" />
        </mxCell>
        <mxCell id="weaDEV8ENetCzNVKxgwO-42" value="+modifie_teacher_info(teacher):&lt;div&gt;List[teacher]&lt;/div&gt;" style="text;strokeColor=none;fillColor=none;align=left;verticalAlign=top;spacingLeft=4;spacingRight=4;overflow=hidden;rotatable=0;points=[[0,0.5],[1,0.5]];portConstraint=eastwest;whiteSpace=wrap;html=1;" vertex="1" parent="0-rDXfHknbJrmzrThzKK-11">
          <mxGeometry y="510" width="220" height="36" as="geometry" />
        </mxCell>
        <mxCell id="weaDEV8ENetCzNVKxgwO-43" value="+add_course(course):&lt;div&gt;List[tcourse]&lt;/div&gt;" style="text;strokeColor=none;fillColor=none;align=left;verticalAlign=top;spacingLeft=4;spacingRight=4;overflow=hidden;rotatable=0;points=[[0,0.5],[1,0.5]];portConstraint=eastwest;whiteSpace=wrap;html=1;" vertex="1" parent="0-rDXfHknbJrmzrThzKK-11">
          <mxGeometry y="546" width="220" height="36" as="geometry" />
        </mxCell>
        <mxCell id="weaDEV8ENetCzNVKxgwO-44" value="+course_with_teacher(course):&lt;div&gt;Dic[str, list])&lt;/div&gt;" style="text;strokeColor=none;fillColor=none;align=left;verticalAlign=top;spacingLeft=4;spacingRight=4;overflow=hidden;rotatable=0;points=[[0,0.5],[1,0.5]];portConstraint=eastwest;whiteSpace=wrap;html=1;" vertex="1" parent="0-rDXfHknbJrmzrThzKK-11">
          <mxGeometry y="582" width="220" height="36" as="geometry" />
        </mxCell>
        <mxCell id="0-rDXfHknbJrmzrThzKK-12" value="" style="endArrow=block;endFill=0;html=1;rounded=0;entryX=0.437;entryY=1.16;entryDx=0;entryDy=0;entryPerimeter=0;exitX=0.5;exitY=0;exitDx=0;exitDy=0;" parent="1" source="0-rDXfHknbJrmzrThzKK-11" target="mFrYlg1bk1QKZE4jiOjr-56" edge="1">
          <mxGeometry width="160" relative="1" as="geometry">
            <mxPoint x="315" y="460" as="sourcePoint" />
            <mxPoint x="240" y="363" as="targetPoint" />
          </mxGeometry>
        </mxCell>
        <mxCell id="0-rDXfHknbJrmzrThzKK-14" value="Course" style="swimlane;fontStyle=0;childLayout=stackLayout;horizontal=1;startSize=26;fillColor=none;horizontalStack=0;resizeParent=1;resizeParentMax=0;resizeLast=0;collapsible=1;marginBottom=0;whiteSpace=wrap;html=1;" parent="1" vertex="1">
          <mxGeometry x="650" y="530" width="160" height="192" as="geometry" />
        </mxCell>
        <mxCell id="0-rDXfHknbJrmzrThzKK-15" value="+ name : str" style="text;strokeColor=none;fillColor=none;align=left;verticalAlign=top;spacingLeft=4;spacingRight=4;overflow=hidden;rotatable=0;points=[[0,0.5],[1,0.5]];portConstraint=eastwest;whiteSpace=wrap;html=1;" parent="0-rDXfHknbJrmzrThzKK-14" vertex="1">
          <mxGeometry y="26" width="160" height="26" as="geometry" />
        </mxCell>
        <mxCell id="0-rDXfHknbJrmzrThzKK-16" value="+ begin_date : DateTime" style="text;strokeColor=none;fillColor=none;align=left;verticalAlign=top;spacingLeft=4;spacingRight=4;overflow=hidden;rotatable=0;points=[[0,0.5],[1,0.5]];portConstraint=eastwest;whiteSpace=wrap;html=1;" parent="0-rDXfHknbJrmzrThzKK-14" vertex="1">
          <mxGeometry y="52" width="160" height="26" as="geometry" />
        </mxCell>
        <mxCell id="0-rDXfHknbJrmzrThzKK-17" value="+ end_date : DateTime" style="text;strokeColor=none;fillColor=none;align=left;verticalAlign=top;spacingLeft=4;spacingRight=4;overflow=hidden;rotatable=0;points=[[0,0.5],[1,0.5]];portConstraint=eastwest;whiteSpace=wrap;html=1;" parent="0-rDXfHknbJrmzrThzKK-14" vertex="1">
          <mxGeometry y="78" width="160" height="26" as="geometry" />
        </mxCell>
        <mxCell id="34" value="" style="rounded=0;whiteSpace=wrap;html=1;" parent="0-rDXfHknbJrmzrThzKK-14" vertex="1">
          <mxGeometry y="104" width="160" height="8" as="geometry" />
        </mxCell>
        <mxCell id="35" value="+ get_students() : List[Student]" style="text;strokeColor=none;fillColor=none;align=left;verticalAlign=top;spacingLeft=4;spacingRight=4;overflow=hidden;rotatable=0;points=[[0,0.5],[1,0.5]];portConstraint=eastwest;whiteSpace=wrap;html=1;" parent="0-rDXfHknbJrmzrThzKK-14" vertex="1">
          <mxGeometry y="112" width="160" height="40" as="geometry" />
        </mxCell>
        <mxCell id="36" value="+ get_note(Student) : Note&lt;div&gt;+current_course():&lt;span style=&quot;background-color: rgb(252, 244, 212); font-family: &amp;quot;JetBrains Mono&amp;quot;, monospace; color: rgb(8, 8, 8);&quot;&gt;&lt;br&gt;&lt;/span&gt;&lt;/div&gt;" style="text;strokeColor=none;fillColor=none;align=left;verticalAlign=top;spacingLeft=4;spacingRight=4;overflow=hidden;rotatable=0;points=[[0,0.5],[1,0.5]];portConstraint=eastwest;whiteSpace=wrap;html=1;" parent="0-rDXfHknbJrmzrThzKK-14" vertex="1">
          <mxGeometry y="152" width="160" height="40" as="geometry" />
        </mxCell>
        <mxCell id="0-rDXfHknbJrmzrThzKK-18" value="Note" style="swimlane;fontStyle=0;childLayout=stackLayout;horizontal=1;startSize=26;fillColor=none;horizontalStack=0;resizeParent=1;resizeParentMax=0;resizeLast=0;collapsible=1;marginBottom=0;whiteSpace=wrap;html=1;" parent="1" vertex="1">
          <mxGeometry x="520" y="360" width="140" height="52" as="geometry" />
        </mxCell>
        <mxCell id="0-rDXfHknbJrmzrThzKK-19" value="+note : float" style="text;strokeColor=none;fillColor=none;align=left;verticalAlign=top;spacingLeft=4;spacingRight=4;overflow=hidden;rotatable=0;points=[[0,0.5],[1,0.5]];portConstraint=eastwest;whiteSpace=wrap;html=1;" parent="0-rDXfHknbJrmzrThzKK-18" vertex="1">
          <mxGeometry y="26" width="140" height="26" as="geometry" />
        </mxCell>
        <mxCell id="0-rDXfHknbJrmzrThzKK-23" value="Manage" style="endArrow=open;html=1;endSize=12;startArrow=open;startSize=14;startFill=0;edgeStyle=orthogonalEdgeStyle;rounded=0;exitX=1;exitY=0.75;exitDx=0;exitDy=0;entryX=-0.009;entryY=0.11;entryDx=0;entryDy=0;entryPerimeter=0;" parent="1" source="0-rDXfHknbJrmzrThzKK-7" target="0-rDXfHknbJrmzrThzKK-16" edge="1">
          <mxGeometry relative="1" as="geometry">
            <mxPoint x="310" y="500" as="sourcePoint" />
            <mxPoint x="470" y="500" as="targetPoint" />
          </mxGeometry>
        </mxCell>
        <mxCell id="0-rDXfHknbJrmzrThzKK-24" value="1" style="edgeLabel;resizable=0;html=1;align=left;verticalAlign=top;" parent="0-rDXfHknbJrmzrThzKK-23" connectable="0" vertex="1">
          <mxGeometry x="-1" relative="1" as="geometry" />
        </mxCell>
        <mxCell id="0-rDXfHknbJrmzrThzKK-25" value="0..n" style="edgeLabel;resizable=0;html=1;align=right;verticalAlign=top;" parent="0-rDXfHknbJrmzrThzKK-23" connectable="0" vertex="1">
          <mxGeometry x="1" relative="1" as="geometry" />
        </mxCell>
        <mxCell id="0-rDXfHknbJrmzrThzKK-31" value="Follow" style="endArrow=open;html=1;endSize=12;startArrow=open;startSize=14;startFill=0;edgeStyle=orthogonalEdgeStyle;rounded=0;entryX=0.077;entryY=-0.004;entryDx=0;entryDy=0;entryPerimeter=0;exitX=1;exitY=0.5;exitDx=0;exitDy=0;" parent="1" source="7" target="0-rDXfHknbJrmzrThzKK-14" edge="1">
          <mxGeometry relative="1" as="geometry">
            <mxPoint x="430" y="410" as="sourcePoint" />
            <mxPoint x="570" y="480" as="targetPoint" />
          </mxGeometry>
        </mxCell>
        <mxCell id="0-rDXfHknbJrmzrThzKK-32" value="0..n" style="edgeLabel;resizable=0;html=1;align=left;verticalAlign=top;" parent="0-rDXfHknbJrmzrThzKK-31" connectable="0" vertex="1">
          <mxGeometry x="-1" relative="1" as="geometry" />
        </mxCell>
        <mxCell id="0-rDXfHknbJrmzrThzKK-33" value="&lt;div&gt;1..n&lt;/div&gt;&lt;div&gt;&lt;br&gt;&lt;/div&gt;" style="edgeLabel;resizable=0;html=1;align=right;verticalAlign=top;" parent="0-rDXfHknbJrmzrThzKK-31" connectable="0" vertex="1">
          <mxGeometry x="1" relative="1" as="geometry">
            <mxPoint x="-11" y="-22" as="offset" />
          </mxGeometry>
        </mxCell>
        <mxCell id="24" value="" style="endArrow=none;dashed=1;html=1;strokeWidth=2;rounded=0;entryX=0.489;entryY=1.046;entryDx=0;entryDy=0;entryPerimeter=0;" parent="1" target="0-rDXfHknbJrmzrThzKK-19" edge="1">
          <mxGeometry width="50" height="50" relative="1" as="geometry">
            <mxPoint x="590" y="470" as="sourcePoint" />
            <mxPoint x="520" y="440" as="targetPoint" />
          </mxGeometry>
        </mxCell>
        <mxCell id="29" value="" style="endArrow=blockThin;endFill=0;endSize=12;html=1;rounded=0;exitX=0.5;exitY=0;exitDx=0;exitDy=0;entryX=0.292;entryY=0.968;entryDx=0;entryDy=0;entryPerimeter=0;dashed=1;dashPattern=8 8;" parent="1" source="mFrYlg1bk1QKZE4jiOjr-52" target="28" edge="1">
          <mxGeometry width="160" relative="1" as="geometry">
            <mxPoint x="320" y="210" as="sourcePoint" />
            <mxPoint x="480" y="210" as="targetPoint" />
          </mxGeometry>
        </mxCell>
        <mxCell id="30" value="" style="endArrow=blockThin;endFill=0;endSize=12;html=1;rounded=0;exitX=0.444;exitY=-0.012;exitDx=0;exitDy=0;entryX=0.514;entryY=0.95;entryDx=0;entryDy=0;entryPerimeter=0;exitPerimeter=0;dashed=1;dashPattern=8 8;" parent="1" source="mFrYlg1bk1QKZE4jiOjr-57" target="28" edge="1">
          <mxGeometry width="160" relative="1" as="geometry">
            <mxPoint x="283" y="231" as="sourcePoint" />
            <mxPoint x="414" y="90" as="targetPoint" />
          </mxGeometry>
        </mxCell>
        <mxCell id="31" value="" style="endArrow=blockThin;endFill=0;endSize=12;html=1;rounded=0;exitX=0.75;exitY=0;exitDx=0;exitDy=0;dashed=1;dashPattern=8 8;" parent="1" source="0-rDXfHknbJrmzrThzKK-18" target="28" edge="1">
          <mxGeometry width="160" relative="1" as="geometry">
            <mxPoint x="656" y="240" as="sourcePoint" />
            <mxPoint x="550" y="100" as="targetPoint" />
          </mxGeometry>
        </mxCell>
        <mxCell id="32" value="" style="endArrow=blockThin;endFill=0;endSize=12;html=1;rounded=0;exitX=0.75;exitY=0;exitDx=0;exitDy=0;entryX=0.751;entryY=1.181;entryDx=0;entryDy=0;entryPerimeter=0;dashed=1;dashPattern=8 8;" parent="1" source="0-rDXfHknbJrmzrThzKK-14" target="28" edge="1">
          <mxGeometry width="160" relative="1" as="geometry">
            <mxPoint x="809" y="510" as="sourcePoint" />
            <mxPoint x="670" y="230" as="targetPoint" />
          </mxGeometry>
        </mxCell>
        <mxCell id="33" value="«interface»&lt;br&gt;&lt;b&gt;Inputable&lt;br&gt;&lt;br&gt;&lt;br&gt;&lt;/b&gt;" style="html=1;whiteSpace=wrap;" parent="1" vertex="1">
          <mxGeometry x="440" y="10" width="150" height="80" as="geometry" />
        </mxCell>
        <mxCell id="28" value="&lt;i&gt;+ user_input()&lt;/i&gt;" style="text;strokeColor=none;fillColor=none;align=left;verticalAlign=top;spacingLeft=4;spacingRight=4;overflow=hidden;rotatable=0;points=[[0,0.5],[1,0.5]];portConstraint=eastwest;whiteSpace=wrap;html=1;" parent="1" vertex="1">
          <mxGeometry x="440" y="64" width="160" height="26" as="geometry" />
        </mxCell>
        <mxCell id="81xMcjO7hVpdxoCYTjmN-37" value="&lt;pre style=&quot;forced-color-adjust: none; color: rgb(8, 8, 8); font-size: 12px; font-style: normal; font-variant-ligatures: normal; font-variant-caps: normal; font-weight: 400; letter-spacing: normal; orphans: 2; text-align: left; text-indent: 0px; text-transform: none; widows: 2; word-spacing: 0px; -webkit-text-stroke-width: 0px; text-decoration-thickness: initial; text-decoration-style: initial; text-decoration-color: initial; font-family: &amp;quot;JetBrains Mono&amp;quot;, monospace;&quot;&gt;&lt;br&gt;&lt;/pre&gt;" style="text;whiteSpace=wrap;html=1;" parent="1" vertex="1">
          <mxGeometry x="240" y="810" width="180" height="80" as="geometry" />
        </mxCell>
      </root>
    </mxGraphModel>
  </diagram>
</mxfile>
